<svg width="18" height="18" viewBox="0 0 18 18" fill="none" xmlns="http://www.w3.org/2000/svg">
<g clip-path="url(#clip0_422_126)">
<path d="M17.5373 8.58976C17.5373 3.84505 13.7147 -0.00109863 8.99984 -0.00109863C4.28287 -3.14452e-05 0.460205 3.84505 0.460205 8.59083C0.460205 12.8777 3.5828 16.4315 7.66372 17.076V11.0731H5.49733V8.59083H7.66586V6.69657C7.66586 4.54405 8.94114 3.35521 10.8909 3.35521C11.8258 3.35521 12.8022 3.52275 12.8022 3.52275V5.63579H11.7254C10.6657 5.63579 10.3349 6.29851 10.3349 6.97831V8.58976H12.7019L12.3241 11.072H10.3338V17.075C14.4147 16.4304 17.5373 12.8767 17.5373 8.58976Z" fill="#059BE5"/>
</g>
<defs>
<clipPath id="clip0_422_126">
<rect x="0.462402" width="17.075" height="17.075" rx="8.5375" fill="white"/>
</clipPath>
</defs>
</svg>
