<svg width="18" height="18" viewBox="0 0 18 18" fill="none" xmlns="http://www.w3.org/2000/svg">
<g clip-path="url(#clip0_422_122)">
<path fill-rule="evenodd" clip-rule="evenodd" d="M8.9999 0C4.28293 0 0.462402 3.82053 0.462402 8.5375C0.462402 12.3153 2.90626 15.5062 6.29992 16.6375C6.72679 16.7122 6.88687 16.456 6.88687 16.2319C6.88687 16.0292 6.8762 15.3568 6.8762 14.6418C4.73115 15.0367 4.17622 14.1189 4.00547 13.6387C3.90942 13.3932 3.49322 12.6355 3.13037 12.4327C2.83156 12.2727 2.40468 11.8778 3.1197 11.8671C3.79203 11.8565 4.27226 12.4861 4.43234 12.7422C5.20072 14.0335 6.42798 13.6707 6.91889 13.4466C6.99359 12.8916 7.2177 12.5181 7.46315 12.3047C5.56356 12.0912 3.57859 11.3549 3.57859 8.08928C3.57859 7.16083 3.90942 6.39245 4.45368 5.79483C4.36831 5.58139 4.0695 4.7063 4.53906 3.53239C4.53906 3.53239 5.25407 3.30828 6.88687 4.40748C7.56987 4.21539 8.29556 4.11934 9.02125 4.11934C9.74693 4.11934 10.4726 4.21539 11.1556 4.40748C12.7884 3.29761 13.5034 3.53239 13.5034 3.53239C13.973 4.7063 13.6742 5.58139 13.5888 5.79483C14.1331 6.39245 14.4639 7.15016 14.4639 8.08928C14.4639 11.3655 12.4683 12.0912 10.5687 12.3047C10.8782 12.5715 11.1449 13.0837 11.1449 13.8841C11.1449 15.026 11.1343 15.9438 11.1343 16.2319C11.1343 16.456 11.2944 16.7228 11.7212 16.6375C13.4161 16.0652 14.8888 14.976 15.9321 13.5229C16.9755 12.0699 17.5369 10.3263 17.5374 8.5375C17.5374 3.82053 13.7169 0 8.9999 0Z" fill="black"/>
</g>
<defs>
<clipPath id="clip0_422_122">
<rect x="0.462402" width="17.075" height="17.075" rx="8.5375" fill="white"/>
</clipPath>
</defs>
</svg>
