<svg width="18" height="18" viewBox="0 0 18 18" fill="none" xmlns="http://www.w3.org/2000/svg">
<g clip-path="url(#clip0_422_115)">
<path d="M17.3711 6.86531H16.6834V6.82988H8.99975V10.2448H13.8246C13.1207 12.2327 11.2293 13.6598 8.99975 13.6598C6.1709 13.6598 3.87734 11.3662 3.87734 8.53735C3.87734 5.7085 6.1709 3.41494 8.99975 3.41494C10.3055 3.41494 11.4935 3.90755 12.398 4.71219L14.8128 2.2974C13.2881 0.876359 11.2485 0 8.99975 0C4.285 0 0.462402 3.8226 0.462402 8.53735C0.462402 13.2521 4.285 17.0747 8.99975 17.0747C13.7145 17.0747 17.5371 13.2521 17.5371 8.53735C17.5371 7.96492 17.4782 7.40615 17.3711 6.86531Z" fill="#FFC107"/>
<path d="M1.44629 4.56364L4.25124 6.62072C5.01021 4.74165 6.8483 3.41494 8.99929 3.41494C10.3051 3.41494 11.493 3.90755 12.3976 4.71219L14.8124 2.2974C13.2876 0.876359 11.248 0 8.99929 0C5.72009 0 2.8763 1.85132 1.44629 4.56364Z" fill="#FF3D00"/>
<path d="M8.99979 17.075C11.205 17.075 13.2087 16.2311 14.7237 14.8587L12.0813 12.6228C11.1954 13.2966 10.1128 13.661 8.99979 13.6601C6.77923 13.6601 4.89375 12.2442 4.18344 10.2682L1.39941 12.4132C2.81235 15.178 5.68175 17.075 8.99979 17.075Z" fill="#4CAF50"/>
<path d="M17.3711 6.86526H16.6834V6.82983H8.99976V10.2448H13.8246C13.4879 11.1909 12.8814 12.0176 12.08 12.6229L12.0813 12.622L14.7236 14.8579C14.5367 15.0278 17.5371 12.806 17.5371 8.5373C17.5371 7.96488 17.4782 7.40611 17.3711 6.86526Z" fill="#1976D2"/>
</g>
<defs>
<clipPath id="clip0_422_115">
<rect x="0.462402" width="17.075" height="17.075" rx="8.5375" fill="white"/>
</clipPath>
</defs>
</svg>
