<svg width="32" height="32" viewBox="0 0 32 32" fill="none" xmlns="http://www.w3.org/2000/svg">
<path d="M16 2C8.268 2 2 8.268 2 16C2 23.732 8.268 30 16 30C23.732 30 30 23.732 30 16C30 8.268 23.732 2 16 2ZM16 27.2C9.812 27.2 4.8 22.188 4.8 16C4.8 9.812 9.812 4.8 16 4.8C22.188 4.8 27.2 9.812 27.2 16C27.2 22.188 22.188 27.2 16 27.2Z" fill="#9B59B6"/>
<path d="M20.5 15.4999L14.5 11.4999C14.1 11.1999 13.6 11.1999 13.2 11.4999C12.8 11.7999 12.5 12.1999 12.5 12.6999V20.6999C12.5 21.1999 12.8 21.5999 13.2 21.8999C13.4 21.9999 13.6 22.0999 13.8 22.0999C14 22.0999 14.3 21.9999 14.5 21.8999L20.5 17.8999C20.9 17.5999 21.1 17.1999 21.1 16.6999C21.1 16.1999 20.9 15.7999 20.5 15.4999Z" fill="#9B59B6"/>
</svg>
